<svg width="31" height="21" viewBox="0 0 31 21" fill="none" xmlns="http://www.w3.org/2000/svg">
<path d="M14.3547 10.501H16.6453C16.9809 10.501 17.2887 10.6138 17.5081 10.7977C17.7301 10.9815 17.8664 11.2343 17.8664 11.5121V15.5103C17.8664 15.7881 17.7301 16.0409 17.5081 16.2247C17.2861 16.4085 16.9809 16.5213 16.6453 16.5213H14.3547C14.0191 16.5213 13.7139 16.4085 13.4919 16.2247C13.2699 16.0409 13.1336 15.7881 13.1336 15.5103V11.5142C13.1336 11.2363 13.2699 10.9815 13.4919 10.7998C13.7139 10.6159 14.0191 10.501 14.3547 10.501ZM1.75838 2.91614H9.70516V1.03193C9.70516 0.747837 9.84391 0.490898 10.071 0.302895C10.2955 0.114891 10.6083 0 10.9514 0H20.0486C20.3917 0 20.702 0.114891 20.929 0.302895C21.1536 0.488809 21.2948 0.747837 21.2948 1.03193V2.91823H29.2416C29.726 2.91823 30.165 3.08117 30.4854 3.34646C30.8032 3.60967 31.0025 3.97523 31.0025 4.37631V19.5461C31.0025 19.9472 30.8057 20.3107 30.4854 20.576C30.1675 20.8392 29.726 21.0042 29.2416 21.0042H1.75838C1.27401 21.0042 0.835042 20.8412 0.514648 20.576C0.196777 20.3086 0 19.9451 0 19.544V4.37422C0 3.97314 0.196777 3.60967 0.517171 3.34438C0.835042 3.08117 1.27401 2.91614 1.75838 2.91614ZM20.0486 0.904506H10.9514C10.9085 0.904506 10.8707 0.919129 10.8429 0.942107C10.8152 0.965085 10.7975 0.996419 10.7975 1.03193V2.89734H20.2025V1.03193C20.2025 0.996419 20.1848 0.965085 20.1571 0.942107C20.1293 0.91704 20.0915 0.904506 20.0486 0.904506ZM1.08984 11.6207C5.10864 12.5774 8.08049 12.989 12.1018 13.1435V14.048C8.08301 13.8956 5.11117 13.4945 1.08984 12.5566V19.5419C1.08984 19.6944 1.16553 19.8323 1.28662 19.9326C1.40771 20.0328 1.57422 20.0955 1.75838 20.0955H29.2391C29.4233 20.0955 29.5898 20.0328 29.7109 19.9326C29.832 19.8323 29.9076 19.6944 29.9076 19.5419V12.5586C25.8939 13.4945 23.1012 13.8956 19.0899 14.048V13.1435C23.1037 12.9869 25.8964 12.5754 29.9076 11.6207V4.37422C29.9076 4.22173 29.832 4.08386 29.7109 3.98359C29.5898 3.88332 29.4233 3.82065 29.2391 3.82065H1.75838C1.57422 3.82065 1.40771 3.88332 1.28662 3.98359C1.16553 4.08386 1.08984 4.22173 1.08984 4.37422V11.6207ZM16.6453 11.4056H14.3547C14.3193 11.4056 14.2865 11.4181 14.2638 11.4369C14.2411 11.4557 14.226 11.4828 14.226 11.5121V15.5103C14.226 15.5395 14.2411 15.5667 14.2638 15.5855C14.2865 15.6064 14.3193 15.6168 14.3547 15.6168H16.6453C16.6807 15.6168 16.7135 15.6043 16.7362 15.5855C16.7589 15.5667 16.774 15.5395 16.774 15.5103V11.5142C16.774 11.4849 16.7589 11.4578 16.7362 11.439C16.7135 11.4181 16.6807 11.4056 16.6453 11.4056Z" fill="black"/>
</svg>
