<svg width="27" height="27" viewBox="0 0 27 27" fill="none" xmlns="http://www.w3.org/2000/svg">
<g clip-path="url(#clip0_1_264)">
<path d="M11.4413 15.1213C12.0814 15.8074 12.7807 16.4353 13.5309 16.9977C14.3423 17.6037 15.2021 18.1412 16.1017 18.6048L16.139 18.5783C16.205 18.5253 16.2797 18.4569 16.3588 18.3796C16.4379 18.3024 16.4906 18.2361 16.5609 18.1589L16.8092 17.8344C16.8311 17.8004 16.8561 17.7687 16.8839 17.7394C17.8309 16.4856 19.0109 14.9778 20.9093 15.8608C20.9487 15.8772 20.9869 15.8964 21.0236 15.9182C22.5617 16.8322 24.1393 17.7174 25.6906 18.6136C25.7292 18.6339 25.7659 18.6575 25.8004 18.6842C26.1847 18.9464 26.4932 19.3058 26.6947 19.7262C26.894 20.1592 26.996 20.631 26.9935 21.1081C26.9889 21.5645 26.9193 22.018 26.787 22.4547C26.6477 22.9209 26.456 23.3697 26.2157 23.7924C25.9192 24.3193 25.5333 24.7899 25.0753 25.1831C24.6431 25.5535 24.1598 25.8591 23.6405 26.0904H23.6295C23.1578 26.3043 22.6681 26.4757 22.1661 26.6026C21.6788 26.7275 21.1852 26.8262 20.6874 26.8984C19.926 27.0129 19.1538 27.0366 18.3868 26.969C17.6286 26.9012 16.8796 26.7532 16.1522 26.5275C15.4062 26.29 14.6797 25.9948 13.9791 25.6445C13.2144 25.2654 12.4693 24.8477 11.7467 24.3929L11.5621 24.2781C10.8876 23.8564 10.1603 23.3951 9.4242 22.8498C7.9061 21.6933 6.50748 20.3865 5.2494 18.9491C4.02924 17.5636 2.96108 16.0501 2.06336 14.4348C1.2643 13.0111 0.672348 11.4797 0.305549 9.88734C-0.0242067 8.4714 -0.083853 7.0055 0.129768 5.56725C0.259461 4.71501 0.528206 3.8901 0.925178 3.12575C1.29578 2.41352 1.8072 1.78479 2.42811 1.27807C3.04331 0.782577 3.7552 0.422344 4.51771 0.220672C5.32375 0.0138543 6.1596 -0.0496496 6.98743 0.0330338C7.20802 0.047276 7.42132 0.117947 7.60706 0.238332C7.78947 0.356779 7.94032 0.518188 8.04652 0.70853L11.004 5.73944C11.2646 6.07704 11.4348 6.47601 11.4984 6.89838C11.551 7.31851 11.4887 7.74512 11.3182 8.13237C11.1774 8.45292 10.9843 8.74763 10.747 9.00434C10.5122 9.25875 10.2531 9.48943 9.97352 9.69308C9.81312 9.83215 9.61097 9.98005 9.40003 10.1346L9.38026 10.15C9.1299 10.3227 8.89267 10.5138 8.67054 10.7218C8.58377 10.7922 8.51581 10.8833 8.47279 10.9867C8.47279 11.011 8.49256 10.9867 8.51453 11.0242L8.58924 11.1412C8.83753 11.5319 9.31654 12.2781 9.86366 13.0706C10.3451 13.7889 10.8721 14.4754 11.4413 15.1257V15.1213ZM12.6388 18.1898C11.8215 17.5764 11.0584 16.8932 10.358 16.1478C9.73588 15.4444 9.16181 14.6995 8.63978 13.9182C8.09486 13.128 7.59388 12.3487 7.3346 11.9315L7.27088 11.8366C7.16069 11.7005 7.0785 11.5438 7.02909 11.3755C6.97967 11.2073 6.96402 11.0308 6.98304 10.8564C7.0413 10.3907 7.26528 9.96178 7.61366 9.64893C7.89107 9.38467 8.18861 9.14258 8.50355 8.92487C8.67933 8.79683 8.84632 8.67321 8.99793 8.54297L9.04408 8.50765C9.25737 8.35776 9.45405 8.18532 9.63075 7.9933C9.75743 7.85722 9.86131 7.70141 9.93836 7.53193C10.0018 7.39404 10.0268 7.24147 10.0109 7.09043C9.97807 6.91898 9.90246 6.75871 9.79115 6.62465C9.76401 6.59354 9.74043 6.55948 9.72083 6.5231L6.79408 1.51427C6.15943 1.45629 5.51959 1.5078 4.90223 1.66659C4.34042 1.81405 3.81617 2.07965 3.36414 2.44584C2.90088 2.82562 2.51894 3.29569 2.24134 3.82774C1.92281 4.44608 1.70754 5.11279 1.60413 5.80125C1.41896 7.05069 1.47115 8.32408 1.75794 9.55401C2.09774 11.0076 2.64229 12.4051 3.37513 13.7041C4.21874 15.2209 5.22364 16.6413 6.3722 17.9403C7.56424 19.3012 8.88925 20.5385 10.3273 21.6335C10.9865 22.1346 11.7028 22.5783 12.3619 22.9889L12.5487 23.1081C13.2252 23.5345 13.9226 23.9265 14.6383 24.2825C15.269 24.5983 15.9236 24.8633 16.5961 25.075C17.2229 25.2727 17.8689 25.4029 18.5231 25.4635C19.1751 25.5197 19.8314 25.499 20.4786 25.4017C20.9225 25.339 21.3626 25.2521 21.797 25.1412C22.2138 25.0365 22.6204 24.8947 23.0121 24.7174H23.0319C23.4225 24.5434 23.7865 24.3145 24.1129 24.0374C24.439 23.7569 24.7141 23.4215 24.9259 23.0463C25.11 22.7232 25.2574 22.3803 25.3654 22.0242C25.4561 21.7241 25.5049 21.4128 25.5104 21.0993C25.5159 20.8451 25.4641 20.5931 25.3588 20.362C25.2699 20.1744 25.1326 20.0143 24.9611 19.8984C23.7723 19.0441 21.6849 18.0021 20.3468 17.2251L20.2831 17.192L20.3095 17.2052L20.2831 17.192C19.4591 16.8233 18.6945 17.799 18.0726 18.6224L18.0353 18.6754C17.9276 18.8189 17.8156 18.958 17.7277 19.0772C17.6398 19.1964 17.5079 19.3421 17.4201 19.4304C17.3017 19.5491 17.1762 19.6604 17.0443 19.7637C16.8955 19.8766 16.7322 19.9687 16.5587 20.0374C16.3946 20.1023 16.2185 20.1309 16.0424 20.1213C15.8908 20.111 15.7421 20.0744 15.6029 20.0132L15.5326 19.9823C14.5193 19.468 13.5513 18.8683 12.6388 18.1898Z" fill="black"/>
</g>
<defs>
<clipPath id="clip0_1_264">
<rect width="27" height="27" fill="white"/>
</clipPath>
</defs>
</svg>
