<svg width="23" height="18" viewBox="0 0 23 18" fill="none" xmlns="http://www.w3.org/2000/svg">
<path d="M19.868 0.25703C19.9494 0.338299 20.0141 0.434844 20.0582 0.541133C20.1023 0.647423 20.125 0.76137 20.125 0.876448C20.125 0.991526 20.1023 1.10547 20.0582 1.21176C20.0141 1.31805 19.9494 1.4146 19.868 1.49587L7.61959 13.7442C7.53833 13.8257 7.44178 13.8904 7.33549 13.9345C7.2292 13.9786 7.11525 14.0013 7.00018 14.0013C6.8851 14.0013 6.77115 13.9786 6.66486 13.9345C6.55857 13.8904 6.46203 13.8257 6.38076 13.7442L0.256571 7.62005C0.0922912 7.45577 0 7.23296 0 7.00064C0 6.76831 0.0922912 6.5455 0.256571 6.38122C0.420851 6.21694 0.643662 6.12465 0.875989 6.12465C1.10832 6.12465 1.33113 6.21694 1.49541 6.38122L7.00018 11.8877L18.6291 0.25703C18.7104 0.175555 18.8069 0.110914 18.9132 0.0668084C19.0195 0.022703 19.1335 0 19.2486 0C19.3636 0 19.4776 0.022703 19.5839 0.0668084C19.6902 0.110914 19.7867 0.175555 19.868 0.25703Z" fill="#45EDF2"/>
<line x1="0.5" y1="16.75" x2="22.5" y2="16.75" stroke="#45EDF2" stroke-linecap="round"/>
</svg>
