<svg width="18" height="18" viewBox="0 0 18 18" fill="none" xmlns="http://www.w3.org/2000/svg">
<path d="M2.43507 0.847797C2.22721 0.647039 1.94881 0.535952 1.65984 0.538463C1.37088 0.540974 1.09445 0.656882 0.890112 0.861222C0.685772 1.06556 0.569864 1.34199 0.567353 1.63095C0.564842 1.91992 0.675928 2.19832 0.876687 2.40618L7.24137 8.77086L0.875584 15.1355C0.770322 15.2372 0.68636 15.3588 0.6286 15.4933C0.570839 15.6277 0.540437 15.7724 0.539165 15.9187C0.537894 16.065 0.565779 16.2102 0.621194 16.3456C0.676609 16.4811 0.758444 16.6041 0.861924 16.7076C0.965404 16.8111 1.08846 16.8929 1.2239 16.9483C1.35935 17.0037 1.50447 17.0316 1.65081 17.0303C1.79715 17.0291 1.94177 16.9987 2.07623 16.9409C2.21069 16.8832 2.3323 16.7992 2.43397 16.6939L8.79976 10.3292L15.1644 16.6939C15.3723 16.8947 15.6507 17.0058 15.9397 17.0033C16.2286 17.0007 16.5051 16.8848 16.7094 16.6805C16.9137 16.4762 17.0296 16.1997 17.0322 15.9108C17.0347 15.6218 16.9236 15.3434 16.7228 15.1355L10.3581 8.77086L16.7228 2.40618C16.9236 2.19832 17.0347 1.91992 17.0322 1.63095C17.0296 1.34199 16.9137 1.06556 16.7094 0.861222C16.5051 0.656882 16.2286 0.540974 15.9397 0.538463C15.6507 0.535952 15.3723 0.647039 15.1644 0.847797L8.79976 7.21248L2.43507 0.846695V0.847797Z" fill="#7C7C7C"/>
</svg>
