<svg width="24" height="22" viewBox="0 0 24 22" fill="none" xmlns="http://www.w3.org/2000/svg">
<path d="M21.6533 3.36H15.68V1.72667C15.68 0.793333 14.8867 0 13.9533 0H9.47333C8.54 0 7.74667 0.793333 7.74667 1.72667V3.36H1.72667C0.793333 3.36 0 4.10667 0 5.08667V19.46C0 20.3933 0.793333 21.1867 1.72667 21.1867H21.6067C22.54 21.1867 23.3333 20.3933 23.3333 19.46V5.04C23.38 4.10667 22.5867 3.36 21.6533 3.36ZM8.68 1.72667C8.68 1.30667 9.05333 0.933333 9.47333 0.933333H13.9533C14.3733 0.933333 14.7467 1.30667 14.7467 1.72667V3.36H8.68V1.72667ZM0.98 5.04C0.98 4.62 1.35333 4.24667 1.77333 4.24667H21.6533C22.0733 4.24667 22.4467 4.57333 22.4467 5.04V9.05333C22.4467 9.89333 21.7467 10.5933 20.9067 10.5933H12.88H10.5467H2.52C1.68 10.5933 0.98 9.89333 0.98 9.05333V5.04ZM10.9667 11.5267H12.4133V13.3933C12.4133 13.7667 12.0867 14.0933 11.7133 14.0933C11.34 14.0933 11.0133 13.7667 11.0133 13.3933V11.5267H10.9667ZM21.6533 20.2533H1.72667C1.30667 20.2533 0.933333 19.88 0.933333 19.46V10.9667C1.4 11.34 1.91333 11.5267 2.52 11.5267H10.0333V13.3933C10.0333 14.28 10.78 15.0267 11.6667 15.0267C12.5533 15.0267 13.3 14.28 13.3 13.3933V11.5267H20.8133C21.42 11.5267 21.9333 11.2933 22.3533 10.9667V19.46C22.4467 19.88 22.0733 20.2533 21.6533 20.2533Z" fill="#E4E4EB"/>
</svg>
