<svg width="21" height="23" viewBox="0 0 21 23" fill="none" xmlns="http://www.w3.org/2000/svg">
<path d="M20.3207 7.1875C20.6283 7.1875 20.88 6.94492 20.88 6.64844V4.85156C20.88 4.55508 20.6283 4.3125 20.3207 4.3125H19.3886V2.15625C19.3886 0.96582 18.3865 0 17.1514 0H2.23714C1.00205 0 0 0.96582 0 2.15625V20.8438C0 22.0342 1.00205 23 2.23714 23H17.1514C18.3865 23 19.3886 22.0342 19.3886 20.8438V18.6875H20.3207C20.6283 18.6875 20.88 18.4449 20.88 18.1484V16.3516C20.88 16.0551 20.6283 15.8125 20.3207 15.8125H19.3886V12.9375H20.3207C20.6283 12.9375 20.88 12.6949 20.88 12.3984V10.6016C20.88 10.3051 20.6283 10.0625 20.3207 10.0625H19.3886V7.1875H20.3207ZM9.69429 5.75C11.3395 5.75 12.6771 7.03926 12.6771 8.625C12.6771 10.2107 11.3395 11.5 9.69429 11.5C8.04905 11.5 6.71143 10.2107 6.71143 8.625C6.71143 7.03926 8.04905 5.75 9.69429 5.75ZM14.9143 16.3875C14.9143 16.8637 14.4482 17.25 13.8703 17.25H5.51829C4.94036 17.25 4.47429 16.8637 4.47429 16.3875V15.525C4.47429 14.0965 5.87716 12.9375 7.60629 12.9375H7.83932C8.41259 13.1666 9.03712 13.2969 9.69429 13.2969C10.3514 13.2969 10.9806 13.1666 11.5492 12.9375H11.7823C13.5114 12.9375 14.9143 14.0965 14.9143 15.525V16.3875Z" fill="#E4E4EB"/>
</svg>
