<svg width="25" height="25" viewBox="0 0 25 25" fill="none" xmlns="http://www.w3.org/2000/svg">
<path d="M23.4097 12.0069L12.993 1.59028C12.8629 1.46093 12.6869 1.38834 12.5034 1.38834C12.3199 1.38834 12.1439 1.46093 12.0138 1.59028L1.59716 12.0069C1.48339 12.1398 1.42394 12.3107 1.43069 12.4855C1.43744 12.6602 1.5099 12.826 1.63357 12.9497C1.75725 13.0734 1.92304 13.1458 2.09782 13.1526C2.27259 13.1593 2.44348 13.0999 2.57633 12.9861L12.4999 3.0625L22.4235 12.9931C22.5564 13.1068 22.7273 13.1663 22.9021 13.1595C23.0768 13.1528 23.2426 13.0803 23.3663 12.9566C23.49 12.833 23.5624 12.6672 23.5692 12.4924C23.5759 12.3176 23.5165 12.1467 23.4027 12.0139L23.4097 12.0069Z" fill="white"/>
<path d="M19.4445 22.2222H15.9723V15.2778H9.02786V22.2222H5.55564V12.5L4.16675 13.8889V22.2222C4.16675 22.5906 4.31308 22.9438 4.57354 23.2043C4.83401 23.4648 5.18728 23.6111 5.55564 23.6111H10.4167V16.6667H14.5834V23.6111H19.4445C19.8129 23.6111 20.1661 23.4648 20.4266 23.2043C20.6871 22.9438 20.8334 22.5906 20.8334 22.2222V13.7222L19.4445 12.3333V22.2222Z" fill="white"/>
</svg>
