<svg width="20" height="20" viewBox="0 0 20 20" fill="none" xmlns="http://www.w3.org/2000/svg">
<path d="M19.4976 4.01884L15.8697 0.372422C15.63 0.133899 15.3055 0 14.9674 0C14.6292 0 14.3048 0.133899 14.065 0.372422L1.20366 13.2152L0.0293858 18.2832C-0.0111226 18.4684 -0.00973394 18.6604 0.0334502 18.845C0.0766344 19.0297 0.160523 19.2024 0.278989 19.3505C0.397454 19.4985 0.547503 19.6183 0.718175 19.7009C0.888846 19.7836 1.07583 19.8271 1.26546 19.8283C1.35382 19.8372 1.44286 19.8372 1.53122 19.8283L6.65475 18.654L19.4976 5.82352C19.7361 5.58378 19.87 5.25936 19.87 4.92118C19.87 4.583 19.7361 4.25858 19.4976 4.01884ZM6.03671 17.5415L1.23456 18.5489L2.32849 13.8395L11.9513 4.2537L15.6596 7.96193L6.03671 17.5415ZM16.4877 7.06577L12.7795 3.35754L14.9303 1.21913L18.5767 4.92736L16.4877 7.06577Z" fill="#45EDF2"/>
</svg>
