<svg width="28" height="18" viewBox="0 0 28 18" fill="none" xmlns="http://www.w3.org/2000/svg">
<path d="M1.59635 0H26.4036C26.8277 0.00372556 27.233 0.155598 27.5318 0.422719C27.8306 0.68984 27.9988 1.0507 28 1.42713V16.5607C28.0023 16.8495 27.9053 17.132 27.7217 17.3704C27.6887 17.4468 27.6374 17.5159 27.5712 17.5729C27.5268 17.6106 27.476 17.642 27.4207 17.666C27.133 17.8815 26.7687 17.9998 26.3922 18H1.59635C1.17426 17.9963 0.770634 17.8458 0.472157 17.5809C0.17368 17.3159 0.00415882 16.9577 0 16.583V1.42713C0.00117887 1.0507 0.169384 0.68984 0.468179 0.422719C0.766974 0.155598 1.1723 0.00372556 1.59635 0ZM1.52793 15.9595L9.91561 8.22267L1.52793 1.93117V15.9595ZM11.179 9.18826L2.21664 16.8927H25.7058L17.1425 9.18826L14.634 11.0526C14.5234 11.1341 14.3843 11.1787 14.2406 11.1787C14.0969 11.1787 13.9577 11.1341 13.8472 11.0526L11.179 9.18826ZM18.3854 8.2085L26.472 16.0223V1.86235L18.3854 8.2085ZM2.31699 1.09514L14.2166 9.65587L25.5917 1.09514H2.31699Z" fill="black"/>
</svg>
