<svg width="17" height="16" viewBox="0 0 17 16" fill="none" xmlns="http://www.w3.org/2000/svg">
<path d="M8.48738 0.358588C8.41603 0.361049 8.34726 0.385908 8.29082 0.429642L0.47082 6.53171C0.399667 6.58719 0.353467 6.66866 0.342384 6.7582C0.3313 6.84774 0.35624 6.93802 0.411718 7.00917C0.467196 7.08033 0.548667 7.12653 0.638208 7.13761C0.72775 7.14869 0.818026 7.12375 0.889179 7.06828L1.36 6.70105V15.64C1.36001 15.7302 1.39583 15.8166 1.45959 15.8804C1.52335 15.9442 1.60983 15.98 1.7 15.98H6.40289C6.43961 15.9861 6.47707 15.9861 6.51379 15.98H10.4829C10.5196 15.9861 10.5571 15.9861 10.5938 15.98H15.3C15.3902 15.98 15.4766 15.9442 15.5404 15.8804C15.6042 15.8166 15.64 15.7302 15.64 15.64V6.70105L16.1108 7.06828C16.146 7.09575 16.1863 7.11601 16.2294 7.12791C16.2725 7.13981 16.3175 7.14311 16.3618 7.13763C16.4061 7.13214 16.449 7.11797 16.4878 7.09594C16.5267 7.0739 16.5608 7.04442 16.5883 7.00919C16.6158 6.97396 16.636 6.93366 16.6479 6.89059C16.6598 6.84753 16.6631 6.80254 16.6576 6.75821C16.6521 6.71387 16.638 6.67105 16.6159 6.63218C16.5939 6.59332 16.5644 6.55918 16.5292 6.53171L13.94 4.51163V2.03999H11.9V2.91921L8.70918 0.429642C8.64592 0.380587 8.56737 0.355425 8.48738 0.358588ZM8.5 1.12956L14.96 6.17046V15.3H10.88V8.83999H6.12V15.3H2.04V6.17046L8.5 1.12956ZM12.58 2.71999H13.26V3.98105L12.58 3.4498V2.71999ZM6.8 9.51999H10.2V15.3H6.8V9.51999Z" fill="#45EDF2"/>
</svg>
