<svg width="26" height="24" viewBox="0 0 26 24" fill="none" xmlns="http://www.w3.org/2000/svg">
<g clip-path="url(#clip0_1_254)">
<path fill-rule="evenodd" clip-rule="evenodd" d="M9.9361 9.74298L12.7086 6.91657C12.855 6.76792 12.8733 6.76135 13.0257 6.91657L15.7898 9.74298V12.5754H13.7352V10.6627C13.7352 10.5333 13.631 10.4276 13.504 10.4276H12.2219C12.0954 10.4276 11.9912 10.5333 11.9912 10.6627V12.5754H9.9361V9.74298ZM13.9391 20.2603C13.6805 20.447 13.3718 20.548 13.0549 20.5496C12.7692 20.5501 12.4824 20.4712 12.2298 20.3079L12.2259 20.3033C11.4375 19.7921 10.7096 19.2289 10.0497 18.6292C9.36651 18.0124 8.75128 17.3475 8.21047 16.6538C7.47864 15.7189 6.87928 14.7289 6.42083 13.7217C5.95295 12.6907 5.63095 11.632 5.46622 10.5853C5.29406 9.49775 5.29108 8.43141 5.46573 7.42573C5.64137 6.41702 5.99265 5.46444 6.528 4.60641C6.74333 4.26562 6.99191 3.93191 7.27372 3.61388C7.54115 3.30596 7.84331 3.01573 8.17425 2.74775C8.91947 2.14303 9.72325 1.67787 10.5538 1.3659C11.3953 1.04938 12.2715 0.889607 13.1497 0.895674C14.0244 0.902247 14.8882 1.07264 15.7109 1.41393C16.5067 1.75017 17.2653 2.23455 17.957 2.8777C18.2006 3.1027 18.4333 3.35449 18.6511 3.62551C18.8729 3.90006 19.0694 4.18371 19.242 4.47242C19.8116 5.43258 20.1624 6.51006 20.3088 7.64669C20.4581 8.79848 20.3995 10.017 20.1525 11.2361C19.7799 13.0806 19.0009 14.8613 17.9222 16.4181C16.8605 17.9507 15.498 19.282 13.9391 20.2603ZM13.2673 19.1409C13.1452 19.2319 12.9795 19.244 12.8441 19.1556C11.3794 18.2055 10.1475 17.0643 9.18145 15.8261C7.84728 14.1201 7.00629 12.2286 6.71902 10.4069C6.42629 8.55983 6.69967 6.7836 7.60168 5.33854C7.95743 4.76719 8.41141 4.24691 8.96512 3.79843C10.2383 2.76393 11.6925 2.21888 13.1393 2.22949C14.5345 2.23961 15.9108 2.77051 17.1001 3.87629C17.5184 4.26309 17.8701 4.70702 18.1574 5.18837C19.1274 6.81596 19.3363 8.89202 18.9091 10.9964C18.2442 14.293 16.1078 17.3839 13.2673 19.1409ZM23.6156 21.9547L21.7823 16.4707C21.7025 16.2311 21.568 16.0061 21.3269 16.0061H20.3008L20.9885 14.5828H21.3269C21.9014 14.5828 22.3351 14.8315 22.6625 15.2143C22.8754 15.4625 23.0123 15.7437 23.1031 16.0147L25.5645 23.3785H0.161316L2.36326 16.0536C2.46398 15.7255 2.63416 15.3837 2.89365 15.1192H2.89911C3.22012 14.7936 3.63044 14.5828 4.15042 14.5828H4.83214L5.58084 16.0061H4.15042C3.90879 16.0061 3.7649 16.2371 3.69494 16.4707L2.04572 21.9547H23.6156ZM12.7761 4.68579L8.65701 8.62708L9.67314 9.17112L12.5826 6.1809C12.8312 5.92556 12.8342 5.92 13.0817 6.16978L16.0532 9.17112L17.0693 8.62708L12.9438 4.67972C12.8694 4.60893 12.859 4.60084 12.7761 4.68579Z" fill="black"/>
</g>
<defs>
<clipPath id="clip0_1_254">
<rect width="25.4032" height="22.5" fill="white" transform="translate(0.161316 0.887085)"/>
</clipPath>
</defs>
</svg>
