<svg width="97" height="100" viewBox="0 0 97 100" fill="none" xmlns="http://www.w3.org/2000/svg">
<path fill-rule="evenodd" clip-rule="evenodd" d="M13.2325 0H58.0001C61.5088 0.00429872 64.8725 1.09535 67.3545 3.03427C69.8365 4.97319 71.2347 7.60199 71.243 10.3451V25.6552H67.4429V13.023H3.81045V85.5201H67.4534V77.5029L71.2534 75.061V89.6549C71.2452 92.3966 69.8484 95.0242 67.3686 96.9629C64.8888 98.9016 61.5279 99.9936 58.0209 100H13.2533C9.74635 99.9979 6.38321 98.91 3.89952 96.9744C1.41583 95.0387 0.0137625 92.4129 0 89.6712L0 10.3451C0.00824841 7.6034 1.40503 4.97582 3.88481 3.03714C6.3646 1.09845 9.72554 0.00644858 13.2325 0V0ZM37.8963 42.3246C37.932 41.9454 38.1499 41.5908 38.5062 41.3321C38.8625 41.0733 39.3308 40.9295 39.8172 40.9295C40.3035 40.9295 40.7718 41.0733 41.1281 41.3321C41.4844 41.5908 41.7023 41.9454 41.738 42.3246V44.2618L43.8202 43.1874C44.0215 43.0376 44.2623 42.924 44.5257 42.8547C44.7891 42.7853 45.0687 42.7619 45.3449 42.786C45.6211 42.81 45.8872 42.8811 46.1246 42.9941C46.3619 43.107 46.5648 43.2593 46.719 43.4401C46.8731 43.6208 46.9749 43.8258 47.017 44.0406C47.0591 44.2553 47.0406 44.4747 46.9628 44.6833C46.885 44.8919 46.7498 45.0846 46.5666 45.248C46.3834 45.4114 46.1567 45.5415 45.9024 45.6292L43.258 47.021L45.9128 48.3965C46.2741 48.6316 46.5122 48.9622 46.5819 49.3255C46.6516 49.6888 46.5481 50.0595 46.291 50.3671C46.0339 50.6746 45.6412 50.8975 45.1875 50.9934C44.7339 51.0893 44.2509 51.0515 43.8306 50.8872L41.7484 49.8128V51.7581C41.7127 52.1373 41.4948 52.4918 41.1385 52.7506C40.7822 53.0094 40.3139 53.1532 39.8276 53.1532C39.3412 53.1532 38.8729 53.0094 38.5166 52.7506C38.1603 52.4918 37.9425 52.1373 37.9067 51.7581V49.8698L35.8245 50.9442C35.6169 51.0711 35.3779 51.1631 35.1225 51.2141C34.8671 51.2651 34.601 51.2742 34.3409 51.2407C34.0808 51.2072 33.8325 51.1319 33.6115 51.0195C33.3906 50.9071 33.2019 50.7601 33.0573 50.5878C32.9128 50.4155 32.8156 50.2216 32.7718 50.0184C32.728 49.8151 32.7387 49.607 32.8031 49.4072C32.8674 49.2074 32.9841 49.0202 33.1458 48.8574C33.3075 48.6947 33.5106 48.5599 33.7423 48.4617L36.3971 47.078L33.7423 45.6943C33.5197 45.5923 33.3258 45.456 33.1726 45.2937C33.0194 45.1314 32.9099 44.9465 32.8508 44.7501C32.7917 44.5537 32.7843 44.35 32.829 44.1513C32.8737 43.9526 32.9695 43.7631 33.1107 43.5942C33.2518 43.4254 33.4354 43.2807 33.6503 43.1689C33.8651 43.0572 34.1067 42.9808 34.3605 42.9443C34.6143 42.9077 34.8749 42.9119 35.1266 42.9565C35.3782 43.0011 35.6157 43.0852 35.8245 43.2036L37.9067 44.278V42.3246H37.8963ZM78.2184 42.3246C78.2184 41.9274 78.4202 41.5465 78.7795 41.2656C79.1387 40.9847 79.626 40.827 80.134 40.827C80.6421 40.827 81.1294 40.9847 81.4886 41.2656C81.8479 41.5465 82.0497 41.9274 82.0497 42.3246V44.2618L84.1319 43.1874C84.5423 43.0459 85.0034 43.0221 85.434 43.1203C85.8646 43.2185 86.237 43.4323 86.4858 43.724C86.7346 44.0158 86.8438 44.3668 86.7941 44.7153C86.7444 45.0638 86.539 45.3874 86.2141 45.6292L83.5593 47.021L86.2141 48.3965C86.4557 48.491 86.6691 48.6244 86.8401 48.7878C87.0111 48.9513 87.136 49.1412 87.2065 49.3451C87.277 49.549 87.2916 49.7622 87.2492 49.9708C87.2069 50.1794 87.1086 50.3786 86.9608 50.5554C86.813 50.7322 86.619 50.8825 86.3917 50.9966C86.1643 51.1106 85.9086 51.1857 85.6415 51.2171C85.3743 51.2484 85.1017 51.2352 84.8416 51.1784C84.5814 51.1215 84.3395 51.0223 84.1319 50.8872L82.0497 49.8128V51.7581C82.0497 52.1553 81.8479 52.5362 81.4886 52.8171C81.1294 53.0979 80.6421 53.2557 80.134 53.2557C79.626 53.2557 79.1387 53.0979 78.7795 52.8171C78.4202 52.5362 78.2184 52.1553 78.2184 51.7581V49.8698L76.1362 50.9442C75.9298 51.084 75.6875 51.1876 75.4257 51.2483C75.1638 51.3089 74.8884 51.325 74.6179 51.2956C74.3474 51.2661 74.0881 51.1918 73.8573 51.0776C73.6265 50.9635 73.4297 50.812 73.2799 50.6335C73.1302 50.4549 73.031 50.2534 72.989 50.0424C72.947 49.8315 72.9632 49.6159 73.0365 49.4102C73.1098 49.2046 73.2385 49.0135 73.414 48.8499C73.5895 48.6863 73.8077 48.5539 74.054 48.4617L76.7088 47.078L74.054 45.6943C73.8124 45.5998 73.599 45.4665 73.428 45.303C73.257 45.1395 73.1321 44.9496 73.0616 44.7457C72.9911 44.5419 72.9765 44.3286 73.0189 44.12C73.0612 43.9115 73.1595 43.7122 73.3073 43.5355C73.4551 43.3587 73.6491 43.2083 73.8764 43.0943C74.1038 42.9802 74.3595 42.9051 74.6266 42.8738C74.8938 42.8424 75.1664 42.8556 75.4265 42.9125C75.6867 42.9693 75.9285 43.0686 76.1362 43.2036L78.2184 44.278V42.3246ZM58.0626 42.3246C58.0626 41.9274 58.2644 41.5465 58.6236 41.2656C58.9829 40.9847 59.4701 40.827 59.9782 40.827C60.4863 40.827 60.9735 40.9847 61.3328 41.2656C61.692 41.5465 61.8938 41.9274 61.8938 42.3246V44.2618L63.9761 43.1874C64.385 43.0573 64.8389 43.0416 65.2609 43.143C65.6829 43.2443 66.0472 43.4566 66.2921 43.7438C66.537 44.031 66.6475 44.3755 66.6049 44.719C66.5623 45.0626 66.3692 45.3841 66.0583 45.6292L63.4035 47.021L66.0583 48.3965C66.2999 48.491 66.5132 48.6244 66.6842 48.7878C66.8553 48.9513 66.9801 49.1412 67.0506 49.3451C67.1212 49.549 67.1357 49.7622 67.0934 49.9708C67.051 50.1794 66.9527 50.3786 66.8049 50.5554C66.6571 50.7322 66.4632 50.8825 66.2358 50.9966C66.0084 51.1106 65.7528 51.1857 65.4856 51.2171C65.2185 51.2484 64.9459 51.2352 64.6857 51.1784C64.4255 51.1215 64.1837 51.0223 63.9761 50.8872L61.8938 49.8128V51.7581C61.8938 52.1553 61.692 52.5362 61.3328 52.8171C60.9735 53.0979 60.4863 53.2557 59.9782 53.2557C59.4701 53.2557 58.9829 53.0979 58.6236 52.8171C58.2644 52.5362 58.0626 52.1553 58.0626 51.7581V49.8698L55.9804 50.9442C55.5603 51.1222 55.0701 51.1704 54.6067 51.0792C54.1434 50.988 53.7408 50.764 53.4788 50.4516C53.2168 50.1392 53.1145 49.7613 53.1922 49.3927C53.2698 49.0241 53.5218 48.6918 53.8981 48.4617L56.553 47.078L53.8981 45.6943C53.6565 45.5998 53.4432 45.4665 53.2722 45.303C53.1011 45.1395 52.9763 44.9496 52.9058 44.7457C52.8353 44.5419 52.8207 44.3286 52.863 44.12C52.9054 43.9115 53.0037 43.7122 53.1515 43.5355C53.2993 43.3587 53.4932 43.2083 53.7206 43.0943C53.948 42.9802 54.2036 42.9051 54.4708 42.8738C54.7379 42.8424 55.0105 42.8556 55.2707 42.9125C55.5309 42.9693 55.7727 43.0686 55.9804 43.2036L58.0626 44.278V42.3246ZM27.6414 31.833H91.7944C93.1791 31.85 94.4999 32.2909 95.4732 33.061C96.4465 33.8311 96.9947 34.8689 97 35.9515V57.9847C97.0017 59.0844 96.4621 60.1425 95.4929 60.9396C94.5237 61.7367 93.1994 62.2116 91.7944 62.266H69.2649C63.5076 67.9717 56.0012 71.4065 47.1309 73.2541C46.7826 73.3254 46.4159 73.3206 46.0707 73.2403C45.7256 73.1599 45.4153 73.007 45.1737 72.7983C45.0022 72.6497 44.8701 72.476 44.7851 72.2872C44.7 72.0984 44.6637 71.8983 44.6783 71.6984C44.6928 71.4986 44.7578 71.303 44.8697 71.123C44.9815 70.9429 45.1379 70.782 45.3298 70.6495C46.3773 69.9377 47.3328 69.1471 48.1825 68.2891C49.81 66.397 51.0239 64.3066 51.7743 62.1032H27.6414C26.2468 62.0968 24.9116 61.6608 23.9254 60.8898C22.9392 60.1189 22.3816 59.075 22.3734 57.9847V35.9515C22.3762 34.8599 22.9321 33.8135 23.9194 33.0416C24.9067 32.2697 26.2451 31.8351 27.6414 31.833ZM35.6267 88.7189C36.6973 88.7205 37.7433 88.9698 38.633 89.4353C39.5227 89.9008 40.2163 90.5617 40.6265 91.3349C41.0366 92.108 41.1449 92.9587 40.9378 93.7798C40.7307 94.601 40.2174 95.3559 39.4626 95.9494C38.7077 96.5429 37.7451 96.9486 36.696 97.1152C35.6468 97.2818 34.5581 97.202 33.5668 96.8858C32.5756 96.5695 31.7262 96.0311 31.1257 95.3382C30.5252 94.6453 30.2003 93.829 30.1921 92.992C30.188 92.432 30.3255 91.8769 30.5968 91.3586C30.8681 90.8403 31.2677 90.369 31.7728 89.9719C32.2778 89.5748 32.8783 89.2597 33.5397 89.0446C34.2011 88.8296 34.9104 88.7189 35.6267 88.7189Z" fill="#F5F5F5"/>
</svg>
