<svg width="20" height="34" viewBox="0 0 20 34" fill="none" xmlns="http://www.w3.org/2000/svg">
<path fill-rule="evenodd" clip-rule="evenodd" d="M3.79016 0H16.207C17.2118 0.00218962 18.1748 0.391394 18.8856 1.08253C19.5963 1.77367 19.997 2.71053 20 3.68831V30.3117C19.997 31.2895 19.5963 32.2263 18.8856 32.9175C18.1748 33.6086 17.2118 33.9978 16.207 34H3.79016C2.78492 33.9985 1.82132 33.6091 1.11077 32.9171C0.400222 32.2251 0.000751865 31.2872 0 30.3089L0 3.68831C0.00150412 2.71056 0.401307 1.77327 1.11177 1.0819C1.82224 0.390523 2.78541 0.0014637 3.79016 0V0ZM9.99716 29.9852C10.3043 29.9846 10.6048 30.0728 10.8604 30.2384C11.1161 30.4041 11.3155 30.6399 11.4335 30.9159C11.5514 31.1919 11.5826 31.4957 11.523 31.789C11.4634 32.0822 11.3158 32.3517 11.0988 32.5632C10.8818 32.7748 10.6051 32.9189 10.3039 32.9774C10.0027 33.036 9.6904 33.0062 9.40656 32.8919C9.12272 32.7777 8.88009 32.584 8.70938 32.3355C8.53866 32.087 8.44754 31.7948 8.44754 31.4959C8.44829 31.096 8.6117 30.7125 8.90207 30.4295C9.19243 30.1464 9.58614 29.9867 9.99716 29.9852ZM18.9082 28.8258V4.6346H1.089V28.8258H18.9082Z" fill="black"/>
</svg>
