<svg xmlns="http://www.w3.org/2000/svg" fill="none" viewBox="4 0 15 15">
<g filter="url(#filter0_d_1_112)">
<path d="M18.796 12.9685L15.8749 10.0478C15.743 9.91602 15.5643 9.84279 15.3768 9.84279H14.8992C15.7079 8.80871 16.1884 7.50806 16.1884 6.09315C16.1884 2.72727 13.4607 0 10.0942 0C6.72774 0 4 2.72727 4 6.09315C4 9.45904 6.72774 12.1863 10.0942 12.1863C11.5093 12.1863 12.8102 11.7059 13.8445 10.8974V11.3749C13.8445 11.5623 13.9177 11.741 14.0496 11.8729L16.9707 14.7935C17.2461 15.0688 17.6914 15.0688 17.9639 14.7935L18.7931 13.9645C19.0685 13.6891 19.0685 13.2438 18.796 12.9685ZM10.0942 9.84279C8.02276 9.84279 6.34392 8.16717 6.34392 6.09315C6.34392 4.02207 8.01983 2.34352 10.0942 2.34352C12.1656 2.34352 13.8445 4.01914 13.8445 6.09315C13.8445 8.16424 12.1686 9.84279 10.0942 9.84279Z" fill="#F5F5F5"/>
</g>
<defs>
<filter id="filter0_d_1_112" x="0" y="0" width="23" height="23" filterUnits="userSpaceOnUse" color-interpolation-filters="sRGB">
<feFlood flood-opacity="0" result="BackgroundImageFix"/>
<feColorMatrix in="SourceAlpha" type="matrix" values="0 0 0 0 0 0 0 0 0 0 0 0 0 0 0 0 0 0 127 0" result="hardAlpha"/>
<feOffset dy="4"/>
<feGaussianBlur stdDeviation="2"/>
<feComposite in2="hardAlpha" operator="out"/>
<feColorMatrix type="matrix" values="0 0 0 0 0 0 0 0 0 0 0 0 0 0 0 0 0 0 0.25 0"/>
<feBlend mode="normal" in2="BackgroundImageFix" result="effect1_dropShadow_1_112"/>
<feBlend mode="normal" in="SourceGraphic" in2="effect1_dropShadow_1_112" result="shape"/>
</filter>
</defs>
</svg>