<?xml version="1.0" encoding="iso-8859-1"?>
<!-- Generator: Adobe Illustrator 19.0.0, SVG Export Plug-In . SVG Version: 6.00 Build 0)  -->
<svg version="1.1" id="Layer_1" xmlns="http://www.w3.org/2000/svg" xmlns:xlink="http://www.w3.org/1999/xlink" x="0px" y="0px"
	 viewBox="0 0 512 512" style="enable-background:new 0 0 512 512;" xml:space="preserve">
<path style="fill:#ffffff;" d="M429.402,374.857c-2.641,0-5.259-1.137-7.067-3.335c-3.208-3.899-2.646-9.662,1.254-12.869
	c44.566-36.654,70.126-90.731,70.126-148.368c0-105.87-86.13-192-192-192c-62.395,0-121.122,30.501-157.098,81.589
	c-2.907,4.129-8.611,5.119-12.739,2.211c-4.128-2.907-5.119-8.611-2.211-12.739C169.062,33.401,233.378,0,301.714,0
	C417.666,0,512,94.334,512,210.286c0,63.125-27.991,122.351-76.795,162.49C433.503,374.175,431.446,374.857,429.402,374.857z"/>
<path style="fill:#ffffff;" d="M433.826,417.761l-114.225-65.767c-11.083-6.381-25.069-4.531-34.112,4.512l-22.498,22.498
	c-8.672,8.672-22.48,9.459-32.034,1.771c-17.64-14.194-35.271-29.989-52.507-47.225s-33.031-34.867-47.225-52.507
	c-7.688-9.554-6.901-23.362,1.771-32.034l22.498-22.498c9.042-9.042,10.893-23.029,4.512-34.111L94.239,78.174
	c-9.286-16.129-31.35-19.047-44.51-5.887l-33.902,33.902c-44.182,44.182,7.304,167.298,114.995,274.989
	s230.808,159.177,274.989,114.995l33.902-33.902C452.873,449.111,449.956,427.047,433.826,417.761z"/>
<g>
	<path style="fill:#ffffff;" d="M40.191,81.825l94.995,164.993l20.307-20.307c9.042-9.042,10.893-23.029,4.511-34.111L94.239,78.174
		c-9.287-16.128-31.35-19.047-44.511-5.887L40.191,81.825z"/>
	<path style="fill:#ffffff;" d="M430.175,471.809l9.538-9.538c13.16-13.16,10.241-35.224-5.887-44.51l-114.225-65.767
		c-11.083-6.381-25.069-4.531-34.112,4.512l-20.837,20.835L430.175,471.809z"/>
</g>
<g>
	<path style="fill:#ffffff;" d="M402.286,228.572h-9.143v-91.429c0-5.049-4.094-9.143-9.143-9.143s-9.143,4.094-9.143,9.143v91.429
		h-43.902l16.326-89.793c0.903-4.968-2.392-9.728-7.36-10.631c-4.969-0.905-9.729,2.392-10.631,7.36l-18.286,100.571
		c-0.485,2.667,0.239,5.413,1.976,7.494c1.737,2.081,4.309,3.285,7.019,3.285h54.857v18.286c0,5.049,4.094,9.143,9.143,9.143
		s9.143-4.094,9.143-9.143v-18.286h9.143c5.049,0,9.143-4.094,9.143-9.143C411.429,232.665,407.335,228.572,402.286,228.572z"/>
	<path style="fill:#ffffff;" d="M292.572,274.286h-73.143c-5.049,0-9.143-4.094-9.143-9.143c0-27.973,21.231-40.45,39.963-51.459
		c17.803-10.463,33.179-19.499,33.179-39.969c0-15.123-12.305-27.429-27.429-27.429c-15.123,0-27.429,12.305-27.429,27.429
		c0,5.049-4.094,9.143-9.143,9.143c-5.049,0-9.143-4.094-9.143-9.143C210.286,148.508,230.793,128,256,128
		s45.714,20.507,45.714,45.714c0,30.933-23.399,44.685-42.2,55.734c-15.294,8.989-25.869,15.741-29.528,26.552h62.585
		c5.049,0,9.143,4.094,9.143,9.143S297.621,274.286,292.572,274.286z"/>
</g>
<path style="fill:#ffffff;" d="M420.572,384c-2.401,0-4.734-0.946-6.465-2.678c-2.161-2.161-3.099-5.261-2.501-8.258l9.143-45.714
	c0.991-4.951,5.803-8.16,10.759-7.173c4.951,0.991,8.162,5.807,7.171,10.759l-6.453,32.266l32.265-6.453
	c4.951-0.992,9.769,2.221,10.759,7.173c0.99,4.952-2.221,9.768-7.171,10.759l-45.714,9.143C421.768,383.942,421.168,384,420.572,384
	z"/>
<g>
	<path style="fill:#ffffff;" d="M301.714,73.143c-5.049,0-9.143-4.094-9.143-9.143V45.714c0-5.049,4.094-9.143,9.143-9.143
		c5.049,0,9.143,4.094,9.143,9.143V64C310.857,69.049,306.764,73.143,301.714,73.143z"/>
	<path style="fill:#ffffff;" d="M466.286,219.429H448c-5.049,0-9.143-4.094-9.143-9.143c0-5.049,4.094-9.143,9.143-9.143h18.286
		c5.049,0,9.143,4.094,9.143,9.143C475.429,215.335,471.335,219.429,466.286,219.429z"/>
</g>
<g>
	<path style="fill:#ffffff;" d="M379.42,84.825c-1.551,0-3.122-0.395-4.562-1.226c-4.373-2.525-5.872-8.117-3.346-12.489
		l4.571-7.918c2.525-4.374,8.117-5.873,12.489-3.346c4.373,2.525,5.872,8.117,3.346,12.489l-4.571,7.918
		C385.653,83.185,382.579,84.825,379.42,84.825z"/>
	<path style="fill:#ffffff;" d="M224.009,84.825c-3.161,0-6.233-1.64-7.927-4.573l-4.571-7.918
		c-2.526-4.373-1.026-9.965,3.346-12.489c4.376-2.525,9.965-1.024,12.489,3.346l4.571,7.918c2.526,4.373,1.026,9.965-3.346,12.489
		C227.132,84.43,225.559,84.825,224.009,84.825z"/>
	<path style="fill:#ffffff;" d="M167.101,141.716c-1.551,0-3.122-0.395-4.562-1.226l-7.919-4.571
		c-4.373-2.525-5.872-8.117-3.347-12.489c2.526-4.374,8.117-5.873,12.49-3.346l7.919,4.571c4.373,2.525,5.872,8.117,3.347,12.489
		C173.334,140.076,170.261,141.716,167.101,141.716z"/>
	<path style="fill:#ffffff;" d="M444.228,301.716c-1.551,0-3.122-0.395-4.562-1.226l-7.918-4.571
		c-4.373-2.525-5.872-8.117-3.346-12.489c2.523-4.374,8.115-5.872,12.489-3.346l7.918,4.571c4.373,2.525,5.872,8.117,3.346,12.489
		C450.461,300.076,447.388,301.716,444.228,301.716z"/>
	<path style="fill:#ffffff;" d="M436.328,141.716c-3.161,0-6.233-1.64-7.927-4.573c-2.526-4.373-1.026-9.965,3.346-12.489
		l7.918-4.571c4.375-2.526,9.966-1.026,12.489,3.346c2.526,4.373,1.026,9.965-3.346,12.489l-7.918,4.571
		C439.452,141.32,437.879,141.716,436.328,141.716z"/>
</g>
<g>
</g>
<g>
</g>
<g>
</g>
<g>
</g>
<g>
</g>
<g>
</g>
<g>
</g>
<g>
</g>
<g>
</g>
<g>
</g>
<g>
</g>
<g>
</g>
<g>
</g>
<g>
</g>
<g>
</g>
</svg>
